<?xml version="1.0" encoding="utf-8"?>
<!-- Generator: Adobe Illustrator 21.1.0, SVG Export Plug-In . SVG Version: 6.00 Build 0)  -->
<svg version="1.1" id="Layer_1" xmlns="http://www.w3.org/2000/svg" xmlns:xlink="http://www.w3.org/1999/xlink" x="0px" y="0px"
	 viewBox="0 0 83 137" style="enable-background:new 0 0 83 137;" xml:space="preserve">
<style type="text/css">
	.st0{fill:#FFFFFF;}
	.st1{fill:#F4A000;}
	.st2{fill:#004A92;}
</style>
<path class="st0" d="M0,100.7c0,0,0.6,12.6,14,23c13.4,10.4,20.6,13,27.6,13c0,0,15-1.4,27.2-13c12.2-11.6,14-23,14-23V51.3
	c0,0,0-5.6-10-6.6c6.4-8.6,5.4-23.8-9.8-21.6c0-9.6-13-11.8-18-6.8V2.2c0,0-5-4.8-12-0.2c-1.6,1.2-3,3.4-3,3.4V14
	c0,0-8.2-0.8-11,9.4c-5.6-1.8-13.4,2.6-13.4,10s4.6,11.4,4.6,11.4S0,45.3,0,51.3C0,51.3,0,100.7,0,100.7z"/>
<path class="st1" d="M65.2,26.9c-0.3,5-1.9,11.2-6,19.1c2.2,0.4,4.4,0.8,6.7,1.3c4.2-5.1,6.6-10.6,6.6-13.9
	C72.5,29.5,70.3,27.1,65.2,26.9z M51.5,18.2c-1.6,0-2.6,0.1-3.5,0.3l0,26.2c1.7,0,3.6,0.2,5.7,0.4c4.4-8.9,5.8-15.3,5.8-19.3
	C59.4,20.9,57.1,18.2,51.5,18.2z M34.4,18.5c-1.2-0.2-2.3-0.3-3.5-0.3c-5.7,0-8,2.7-8,7.6c0,3.9,1.4,10.4,5.8,19.2
	c-1.8,0.2-3.7,0.5-5.6,0.8c-4-7.8-5.7-14-5.9-19c-5.1,0.2-7.3,2.6-7.3,6.5c0,3.3,2.4,8.8,6.6,13.8c-4.3,1-8.6,2.2-12.4,3.5v12.2
	c5.3-2.8,12.7-4.4,19.2-4.4c7.2,0,12.9,1.5,18.1,3.7l0-58.2c-4.2,0-6.9,1.9-6.9,1.9S34.4,18.5,34.4,18.5z M4,68.9v21h6.3v-8.6
	L21.1,90h2.7v-21h-6.3v8.6L6.8,68.9L4,68.9z M36.4,90h-7.8l0-21l7.9,0L36.4,90z"/>
<path class="st2" d="M47.2,79.4c0-3.8,0.9-5.2,2.7-5.2c1.8,0,2.8,1.3,2.8,5.1c0,4.2-0.7,5.8-2.6,5.8C48.1,85.2,47.2,83.6,47.2,79.4z
	 M40.2,79.5c0,6.6,2.8,11.4,9.3,11.4c5.8,0,10-3.2,10-12.1c0-6.7-4.3-10.3-9.5-10.3C45.8,68.6,40.2,71,40.2,79.5z M77.4,84.6h-6.6
	l6.8-15.1l-16.3,0v5.1h6.2l-6.8,15.1h16.7L77.4,84.6z M78.6,97c-4.6,2.4-12.1,4.4-19.1,4.4c-6.7,0-12.6-1.5-18.2-4.2v11.2
	c-5.9-2.8-11.9-4.3-18.3-4.3c-5.2,0-11.9,1.3-16.6,3.3c5.8,13.4,20.7,21.5,34.8,25.1C58.8,128.1,77.6,116.7,78.6,97z"/>
</svg>
