<?xml version="1.0" encoding="utf-8"?>
<!-- Generator: Adobe Illustrator 21.1.0, SVG Export Plug-In . SVG Version: 6.00 Build 0)  -->
<svg version="1.1" xmlns="http://www.w3.org/2000/svg" xmlns:xlink="http://www.w3.org/1999/xlink" x="0px" y="0px"
	 viewBox="0 0 68 79.4" style="enable-background:new 0 0 68 79.4;" xml:space="preserve">
<style type="text/css">
	.st0{fill:#FFFFFF;}
	.st1{fill:#1D1D1B;}
</style>
<g id="Laag_1">
	<g>
		<rect x="5.7" y="1.4" width="56.7" height="56.7"/>
		<polygon class="st0" points="29.7,17.6 34,13.3 38.3,17.6 40.7,15.2 36.4,10.9 40.7,6.6 38.3,4.3 34,8.5 29.7,4.3 27.4,6.6 
			31.6,10.9 27.4,15.2 		"/>
		<polygon class="st0" points="29.7,33.3 34,29 38.3,33.3 40.7,30.9 36.4,26.7 40.7,22.4 38.3,20 34,24.3 29.7,20 27.4,22.4 
			31.6,26.7 27.4,30.9 		"/>
		<polygon class="st0" points="29.7,55.2 34,51 38.3,55.2 40.7,52.9 36.4,48.6 40.7,44.3 38.3,41.9 34,46.2 29.7,41.9 27.4,44.3 
			31.6,48.6 27.4,52.9 		"/>
		<g>
			<path class="st0" d="M46.9,17.5L42,17.7c0,0,0.7,5.2,0.4,10.5c-0.3,5-1.1,5.9-1.1,5.9c-1.1,2.1-4.6,2.6-6.3,2.7
				c-1.8,0.1-2.6,0-2.6,0s-5.1-0.2-6.2-2.6c-0.6-1.3-0.8-4-0.8-4s0-12.4-0.1-12.7c0-0.1-1,0.1-2.2,0.1c-0.9,0-2.3-0.1-2.3-0.1
				l0.4,9.1l-0.1,5.4c0,0,0,2.9,0.7,4c1.3,2,2.6,2.7,3.4,3c0.8,0.4,2,0.7,3.4,1c1.4,0.3,3.7,0.4,6.8-0.4c3.1-0.8,4.4-2.2,4.4-2.2
				l2.3-2.2l0,5.2l4.9-1.4c0,0-0.6-4.1-0.6-11.1C46.6,21.2,46.9,17.5,46.9,17.5"/>
		</g>
	</g>
	<g>
		<path class="st1" d="M18,67.4c0-1.5-0.9-1.5-1.8-1.5L16,65.8v-0.3c0-0.2,0.1-0.2,0.3-0.2c0.5,0,1.6,0.1,2.5,0.1
			c0.9,0,1.8-0.1,2.7-0.1l0.1,0.1v0.5l-0.1,0.1h-0.2c-1.2,0-1.7,0.1-1.7,1.6V73c0,2.8,0.5,4.9,3.6,4.9c3.2,0,4.3-1.6,4.3-4.9v-5
			c0-2.2,0-2-1.6-2.2l-0.1-0.2v-0.4l0.1-0.1c0.3,0,0.7,0.1,2,0.1c0.8,0,1.7-0.1,2.3-0.1l0.1,0.1v0.4l-0.1,0.1c-1.3,0-1.8,0.1-1.8,1
			v6.8c0,3.5-1.9,5.3-5.2,5.3c-2.6,0-5.2-1-5.2-4.2V67.4z"/>
		<path class="st1" d="M34.3,78.9c0,0.1-0.1,0.1-0.1,0.1c-0.1,0-0.2-0.2-0.3-0.4c-0.1-0.2-0.1-0.4-0.2-0.6c-0.9-2.2-2-4.8-2.7-6.6
			C30.9,71,30.2,71,29.9,71c-0.1,0-0.1-0.2-0.1-0.3c0-0.1,0.1-0.2,0.1-0.2c0.3,0,1.1,0.1,1.9,0.1c0.6,0,1.6-0.1,1.8-0.1
			c0.1,0,0.1,0,0.1,0.2v0.2c0,0.1,0,0.1-0.1,0.1l-0.6,0c-0.3,0-0.5,0.1-0.5,0.3c0,0.2,0.1,0.6,0.2,0.9c0.5,1.5,1.2,2.9,1.7,4.4h0
			c0.3-0.9,1.8-4.3,1.8-5c0-0.5-0.3-0.7-0.8-0.7h-0.3c-0.1,0-0.1,0-0.1-0.2v-0.2c0-0.1,0-0.2,0.1-0.2c0.1,0,0.8,0.1,1.7,0.1
			c0.2,0,0.9-0.1,1.4-0.1c0,0,0.1,0,0.1,0.1v0.2c0,0.1,0,0.2-0.1,0.2c-0.9,0-1.1,0.4-1.4,1.3L34.3,78.9z"/>
		<path class="st1" d="M42.2,73.4l-0.8,2.7c-0.1,0.5-0.2,0.9-0.2,1.2c0,0.6,0.8,0.8,1.3,0.8c0.2,0,0.2,0.1,0.2,0.4
			c0,0.2,0,0.3-0.1,0.3c-0.4,0-1.7-0.1-2.2-0.1c-0.5,0-1.2,0.1-1.8,0.1c-0.4,0-0.4-0.1-0.4-0.3v-0.2c0-0.1,0.2-0.1,0.6-0.2
			c0.9-0.1,1.1-0.3,1.4-1.3l3.6-11c0.4-0.3,0.7-0.8,1.2-0.9l4.5,12.1c0.3,0.8,0.6,1.2,1.7,1.2c0.2,0,0.2,0.2,0.2,0.4
			c0,0.2-0.1,0.2-0.3,0.2c-0.3,0-1.4-0.1-2.1-0.1c-0.7,0-1.4,0-2.2,0.1c-0.3,0-0.3-0.1-0.3-0.3c0-0.2,0.1-0.3,0.4-0.3
			c0.3,0,1.1-0.1,1.1-0.5c0-0.2-0.1-0.5-0.3-1.1l-1.1-3.1H42.2z M46.1,72.6l-2-5.5h0l-1.7,5.5H46.1z"/>
	</g>
</g>
<g id="Laag_2">
</g>
</svg>
